<?xml version="1.0"?>
<svg xmlns="http://www.w3.org/2000/svg" height="512px" viewBox="0 0 64 64" width="512px" class=""><g><link xmlns="" type="text/css" id="dark-mode" rel="stylesheet" class="active-path" style=""/><style xmlns="" type="text/css" id="dark-mode-custom-style" class="active-path"/><g id="Layer_21" data-name="Layer 21"><path d="m58 7h-12a6 6 0 0 0 -6-6 5.92 5.92 0 0 0 -4 1.54 6 6 0 0 0 -8 0 5.92 5.92 0 0 0 -4-1.54 6 6 0 0 0 -6 6h-12a5 5 0 0 0 -5 5v32a5 5 0 0 0 5 5h18v6h-1a5 5 0 0 0 -5 5v2a1 1 0 0 0 1 1h26a1 1 0 0 0 1-1v-2a5 5 0 0 0 -5-5h-1v-6h18a5 5 0 0 0 5-5v-32a5 5 0 0 0 -5-5zm-19 15v3h-14v-3zm-15 5h16a1 1 0 0 0 1-1v-13h16v30h-50v-30h16v13a1 1 0 0 0 1 1zm0-24a4 4 0 0 1 3.2 1.62 1 1 0 0 0 1.6 0 4 4 0 0 1 6.4 0 1 1 0 0 0 1.6 0 4 4 0 1 1 3.2 6.38 1 1 0 0 0 -1 1v8h-2v-5h-2v5h-2v-5h-2v5h-2v-5h-2v5h-2v-8a1 1 0 0 0 -1-1 4 4 0 0 1 0-8zm20 57v1h-24v-1a3 3 0 0 1 3-3h18a3 3 0 0 1 3 3zm-6-5h-12v-6h12zm23-11a3 3 0 0 1 -3 3h-52a3 3 0 0 1 -3-3v-32a3 3 0 0 1 3-3h12.35a6.06 6.06 0 0 0 1.2 2h-13.55a1 1 0 0 0 -1 1v32a1 1 0 0 0 1 1h52a1 1 0 0 0 1-1v-32a1 1 0 0 0 -1-1h-13.55a6.06 6.06 0 0 0 1.2-2h12.35a3 3 0 0 1 3 3z" data-original="#000000" class="active-path" fill="#EDF5E1"/><path d="m13 34a1 1 0 0 1 1 1h2a3 3 0 0 0 -6 0v3a3 3 0 0 0 6 0h-2a1 1 0 0 1 -2 0v-3a1 1 0 0 1 1-1z" data-original="#000000" class="active-path" fill="#EDF5E1"/><path d="m20 32a3 3 0 0 0 -3 3v3a3 3 0 0 0 6 0v-3a3 3 0 0 0 -3-3zm1 6a1 1 0 0 1 -2 0v-3a1 1 0 0 1 2 0z" data-original="#000000" class="active-path" fill="#EDF5E1"/><path d="m27 41a3 3 0 0 0 3-3v-3a3 3 0 0 0 -6 0v3a3 3 0 0 0 3 3zm-1-6a1 1 0 0 1 2 0v3a1 1 0 0 1 -2 0z" data-original="#000000" class="active-path" fill="#EDF5E1"/><path d="m33 38.18a3 3 0 0 1 2 2.82h2a5 5 0 0 0 -2-4 5 5 0 0 0 2-4v-1h-2v1a3 3 0 0 1 -2 2.82v-3.82h-2v9h2z" data-original="#000000" class="active-path" fill="#EDF5E1"/><path d="m38 32h2v9h-2z" data-original="#000000" class="active-path" fill="#EDF5E1"/><path d="m43 41v-4.23l.13.23 2 3.5a1 1 0 0 0 .87.5h.26a1 1 0 0 0 .74-1v-8h-2v4.23l-2.12-3.71c-.12-.36-.37-.52-.88-.52a1 1 0 0 0 -.86.5.62.62 0 0 0 -.14.41v8.09z" data-original="#000000" class="active-path" fill="#EDF5E1"/><path d="m48 35v3a3 3 0 0 0 6 0v-1a1 1 0 0 0 -1-1h-2v2h1a1 1 0 0 1 -2 0v-3a1 1 0 0 1 2 0h2a3 3 0 0 0 -6 0z" data-original="#000000" class="active-path" fill="#EDF5E1"/><path d="m43.38 16.5h4.24v2h-4.24z" transform="matrix(.707 -.707 .707 .707 .95 37.3)" data-original="#000000" class="active-path" fill="#EDF5E1"/><path d="m44.5 22.38h2v4.24h-2z" transform="matrix(.707 -.707 .707 .707 -4 39.35)" data-original="#000000" class="active-path" fill="#EDF5E1"/><path d="m45 20h4v2h-4z" data-original="#000000" class="active-path" fill="#EDF5E1"/><path d="m17.5 15.38h2v4.24h-2z" transform="matrix(.707 -.707 .707 .707 -6.96 18.21)" data-original="#000000" class="active-path" fill="#EDF5E1"/><path d="m16.38 23.5h4.24v2h-4.24z" transform="matrix(.707 -.707 .707 .707 -11.91 20.26)" data-original="#000000" class="active-path" fill="#EDF5E1"/><path d="m15 20h4v2h-4z" data-original="#000000" class="active-path" fill="#EDF5E1"/></g></g> </svg>
