<svg id="Capa_1" enable-background="new 0 0 512 512" height="512" viewBox="0 0 512 512" width="512" xmlns="http://www.w3.org/2000/svg"><g><path d="m512 256c0 85.251-41.671 160.77-105.756 207.297-23.472-33.088-59.434-55.16-99.564-61.107l-284.673-42.19c-13.955-31.351-21.794-66.024-22.003-102.506-.809-141.618 114.376-257.494 255.997-257.494 141.384 0 255.999 114.615 255.999 256z" fill="#ffb52d"/><path d="m432 230.914c0 108.248-87.752 196-196 196s-196-87.752-196-196 87.752-196 196-196 196 87.753 196 196z" fill="#ffc14f"/><path d="m512 184.442v67.401c0 2.728-.176 5.484-.523 8.193-6.575 51.289-50.525 89.964-102.231 89.964h-49.246v-30h49.246c36.656 0 67.813-27.418 72.475-63.776.186-1.448.28-2.922.28-4.38v-67.401c-.001-18.992-15.452-34.443-34.443-34.443h-87.558v-30h87.558c35.533 0 64.442 28.909 64.442 64.442z" fill="#c42d2d"/><path d="m412.559 413.86-6.315 49.437c-42.197 30.636-94.11 48.703-150.244 48.703-15.684 0-31.038-1.41-45.942-4.111-24.8-4.494-43.745-24.695-46.94-49.695l-25.051-196.027c-5.372-42.04-8.067-84.379-8.067-126.762v-40.405c0-8.284 6.716-15 15-15h75.991c7.334 0 13.382 5.721 13.813 13.043 1.338 22.739 3.452 45.432 6.341 68.038l21.05 164.721c6.183 48.384 47.179 84.938 95.956 85.111.309.001.618.002.927.002 15.72 0 31.109-1.417 46.046-4.131 4.231-.768 7.98 2.811 7.435 7.076z" fill="#f44545"/><path d="m440 95v40.481c0 42.332-2.688 84.621-8.048 126.612l-19.613 153.66c-20.113 15.219-45.172 24.247-72.339 24.247-66.274 0-120-53.726-120-120v-240h205c8.284 0 15 6.716 15 15z" fill="#fb5858"/><path d="m347.333 290h-52.333c-2.761 0-5-2.239-5-5v-140c0-2.761 2.239-5 5-5h52.333c2.761 0 5 2.239 5 5v140c0 2.761-2.238 5-5 5z" fill="#def4f8"/><path d="m375 290h-53.667c-2.761 0-5-2.239-5-5v-140c0-2.761 2.239-5 5-5h53.667c2.761 0 5 2.239 5 5v140c0 2.761-2.239 5-5 5z" fill="#fff5f5"/><path d="m355 210h-40c-2.761 0-5-2.239-5-5v-50c0-2.761 2.239-5 5-5h40c2.761 0 5 2.239 5 5v50c0 2.761-2.239 5-5 5z" fill="#c2eaf2"/><path d="m335 190c-4.142 0-7.5-3.358-7.5-7.5v-38.56c0-4.142 3.358-7.5 7.5-7.5 4.142 0 7.5 3.358 7.5 7.5v38.56c0 4.142-3.358 7.5-7.5 7.5z" fill="#7cd2e3"/><path d="m335 160c-4.142 0-7.5-3.358-7.5-7.5v-75c0-4.142 3.358-7.5 7.5-7.5 4.142 0 7.5 3.358 7.5 7.5v75c0 4.142-3.358 7.5-7.5 7.5z" fill="#a6e0ec"/><path d="m37.078 388.772c-7.135-11.741 1.396-26.772 15.135-26.772h277.787c0 61.767-37.333 114.814-90.665 137.807-15.525 6.693-32.897 7.971-49.237 3.63-64.587-17.157-119.145-58.931-153.02-114.665z" fill="#a6e0ec"/><path d="m239.708 499.645c-8.557 3.717-17.528 6.66-26.825 8.739-84.788-14.381-155.389-70.45-189.975-146.384h62.5c29.607 65.001 85.604 115.446 154.3 137.645z" fill="#7cd2e3"/><path d="m173 390h-135.171c-5.908-9.599-11.201-19.617-15.822-30h150.993c8.284 0 15 6.716 15 15s-6.716 15-15 15z" fill="#c2eaf2"/><path d="m345 390h-252.592c-8.284 0-15-6.716-15-15s6.716-15 15-15h252.592c8.284 0 15 6.716 15 15s-6.716 15-15 15z" fill="#def4f8"/><path d="m56.248 326.859c-1.919 0-3.839-.732-5.304-2.196-2.929-2.93-2.929-7.678 0-10.607 8.744-8.743 8.744-22.971 0-31.714-14.592-14.594-14.592-38.337 0-52.93 2.93-2.928 7.678-2.928 10.607 0 2.929 2.93 2.929 7.678 0 10.607-8.744 8.743-8.744 22.971 0 31.716 14.592 14.592 14.592 38.335 0 52.928-1.465 1.464-3.385 2.196-5.303 2.196zm46.682-2.196c14.592-14.593 14.592-38.336 0-52.928-8.744-8.745-8.744-22.973 0-31.716 2.929-2.93 2.929-7.678 0-10.607-2.93-2.928-7.678-2.928-10.607 0-14.592 14.593-14.592 38.336 0 52.93 8.744 8.743 8.744 22.971 0 31.714-2.929 2.93-2.929 7.678 0 10.607 1.465 1.464 3.385 2.196 5.304 2.196s3.839-.732 5.303-2.196zm41.38 0c14.592-14.593 14.592-38.336 0-52.928-8.744-8.745-8.744-22.973 0-31.716 2.929-2.93 2.929-7.678 0-10.607-2.93-2.928-7.678-2.928-10.607 0-14.592 14.593-14.592 38.336 0 52.93 8.744 8.743 8.744 22.971 0 31.714-2.929 2.93-2.929 7.678 0 10.607 1.465 1.464 3.385 2.196 5.304 2.196s3.838-.732 5.303-2.196z" fill="#ffd993"/></g></svg>