<svg height="496pt" viewBox="0 0 496 496" width="496pt" xmlns="http://www.w3.org/2000/svg"><path d="m112 448h64v16h-64zm0 0"/><path d="m464 222.632812c0-16.898437-13.742188-30.632812-30.625-30.632812-8.183594 0-15.871094 3.183594-21.65625 8.976562l-15.03125 15.023438h-58.527344l-52.671875-30.71875c-28.34375-16.539062-60.671875-25.28125-93.488281-25.28125-48.519531 0-88 39.480469-88 88s39.480469 88 88 88c32.816406 0 65.144531-8.742188 93.496094-25.28125l52.664062-30.71875h58.527344l15.03125 15.023438c5.785156 5.792968 13.464844 8.976562 21.65625 8.976562 16.882812 0 30.625-13.734375 30.625-30.632812 0-8.175782-3.183594-15.863282-8.96875-21.65625l-3.71875-3.710938 3.71875-3.71875c5.785156-5.785156 8.96875-13.472656 8.96875-21.648438zm-136 44.773438-50.566406 29.496094c-25.914063 15.105468-55.449219 23.097656-85.433594 23.097656-39.703125 0-72-32.304688-72-72s32.296875-72 72-72c29.984375 0 59.519531 7.992188 85.433594 23.097656l50.566406 29.496094zm115.71875-4.382812c2.761719 2.769531 4.28125 6.441406 4.28125 10.34375 0 8.074218-6.558594 14.632812-14.625 14.632812-3.847656 0-7.613281-1.558594-10.34375-4.289062l-19.71875-19.710938h-59.3125v-32h59.3125l19.71875-19.71875c2.730469-2.722656 6.488281-4.28125 10.34375-4.28125 8.066406 0 14.625 6.558594 14.625 14.632812 0 3.902344-1.519531 7.582032-4.28125 10.34375l-15.03125 15.023438zm0 0"/><path d="m176 192h16v16h-16zm0 0"/><path d="m216 200h16v16h-16zm0 0"/><path d="m192 232h16v16h-16zm0 0"/><path d="m144 216h16v16h-16zm0 0"/><path d="m135.128906 112h-43.816406l10.34375-10.34375-11.3125-11.3125-29.65625 29.65625 29.65625 29.65625 11.3125-11.3125-10.34375-10.34375h43.816406zm0 0"/><path d="m135.128906 352h-43.816406l10.34375-10.34375-11.3125-11.3125-29.65625 29.65625 29.65625 29.65625 11.3125-11.3125-10.34375-10.34375h43.816406zm0 0"/><path d="m480 112h16v16h-16zm0 0"/><path d="m480 352h16v16h-16zm0 0"/><path d="m152 112h16v16h-16zm0 0"/><path d="m184 112h16v16h-16zm0 0"/><path d="m216 112h16v16h-16zm0 0"/><path d="m448 112h16v16h-16zm0 0"/><path d="m152 352h16v16h-16zm0 0"/><path d="m184 352h16v16h-16zm0 0"/><path d="m397.65625 397.65625-11.3125-11.3125-29.65625 29.65625 29.65625 29.65625 11.3125-11.3125-10.34375-10.34375h43.816406v-16h-43.816406zm0 0"/><path d="m448 408h16v16h-16zm0 0"/><path d="m480 408h16v16h-16zm0 0"/><path d="m397.65625 82.34375-10.34375-10.34375h43.816406v-16h-43.816406l10.34375-10.34375-11.3125-11.3125-29.65625 29.65625 29.65625 29.65625zm0 0"/><path d="m448 56h16v16h-16zm0 0"/><path d="m480 56h16v16h-16zm0 0"/><path d="m216 352h16v16h-16zm0 0"/><path d="m248 368h24v48h-256v-336h256v32h-24v16h184v-16h-144v-72c0-22.054688-17.945312-40-40-40h-208c-22.054688 0-40 17.945312-40 40v416c0 22.054688 17.945312 40 40 40h208c22.054688 0 40-17.945312 40-40v-88h144v-16h-184zm-208-352h208c13.230469 0 24 10.769531 24 24v24h-256v-24c0-13.230469 10.769531-24 24-24zm208 464h-208c-13.230469 0-24-10.769531-24-24v-24h256v24c0 13.230469-10.769531 24-24 24zm0 0"/><path d="m448 352h16v16h-16zm0 0"/></svg>