<svg id="Capa_1" enable-background="new 0 0 512 512" height="512" viewBox="0 0 512 512" width="512" xmlns="http://www.w3.org/2000/svg"><g><path d="m416 122c-8.284 0-15-6.716-15-15v-30c0-8.284 6.716-15 15-15s15 6.716 15 15v30c0 8.284-6.716 15-15 15z" fill="#00337a"/><path d="m96 122c-8.284 0-15-6.716-15-15v-30c0-8.284 6.716-15 15-15s15 6.716 15 15v30c0 8.284-6.716 15-15 15z" fill="#00429b"/><path d="m186 122c-8.284 0-15-6.716-15-15v-32c0-24.853 20.147-45 45-45h80c24.853 0 45 20.147 45 45v32c0 8.284-6.716 15-15 15-8.284 0-15-6.716-15-15v-32c0-8.284-6.716-15-15-15h-80c-8.284 0-15 6.716-15 15v32c0 8.284-6.716 15-15 15z" fill="#00429b"/><path d="m296 30h-40v30h40c8.284 0 15 6.716 15 15v32c0 8.284 6.716 15 15 15s15-6.716 15-15v-32c0-24.853-20.147-45-45-45z" fill="#00337a"/><path d="m467 482h-422c-24.813 0-45-20.187-45-45v-300c0-24.813 20.187-45 45-45h422c24.813 0 45 20.187 45 45v300c0 24.813-20.187 45-45 45z" fill="#ffde46"/><path d="m467 92h-211v390h211c24.813 0 45-20.187 45-45v-300c0-24.813-20.187-45-45-45z" fill="#ff9d21"/><path d="m396 412c-8.284 0-15-6.716-15-15v-130c0-8.284 6.716-15 15-15s15 6.716 15 15v130c0 8.284-6.716 15-15 15z" fill="#f5f0eb"/><g><path d="m166 412c-68.925 0-125-56.075-125-125s56.075-125 125-125 125 56.075 125 125-56.075 125-125 125z" fill="#f5f0eb"/><path d="m291 287c0-68.925-56.075-125-125-125v250c68.925 0 125-56.075 125-125z" fill="#ebe1dc"/><g><path d="m166 347c-33.084 0-60-26.916-60-60s26.916-60 60-60 60 26.916 60 60-26.916 60-60 60z" fill="#ebe1dc"/><path d="m226 287c0-33.084-26.916-60-60-60v120c33.084 0 60-26.916 60-60z" fill="#dcc8be"/></g></g><path d="m396 252v160c8.284 0 15-6.716 15-15v-130c0-8.284-6.716-15-15-15z" fill="#ebe1dc"/><path d="m396 282c-30.327 0-55-24.673-55-55v-10c0-30.327 24.673-55 55-55s55 24.673 55 55v10c0 30.327-24.673 55-55 55z" fill="#f5f0eb"/><path d="m396 162v120c30.327 0 55-24.673 55-55v-10c0-30.327-24.673-55-55-55z" fill="#ebe1dc"/></g></svg>