<svg id="_x31__x2C_5" enable-background="new 0 0 24 24" height="512" viewBox="0 0 24 24" width="512" xmlns="http://www.w3.org/2000/svg"><path d="m6.75 11c-.192 0-.384-.073-.53-.22-.293-.293-.293-.768 0-1.061l3-3c.229-.229.578-.284.866-.141l1.517.758 2.938-2.938c.293-.293.768-.293 1.061 0s.293.768 0 1.061l-3.32 3.32c-.229.229-.578.285-.866.141l-1.518-.757-2.618 2.617c-.146.147-.338.22-.53.22z"/><path d="m15.25 8c-.414 0-.75-.336-.75-.75v-1.75h-1.75c-.414 0-.75-.336-.75-.75s.336-.75.75-.75h2.5c.414 0 .75.336.75.75v2.5c0 .414-.336.75-.75.75z"/><path d="m5 23c-1.103 0-2-.897-2-2s.897-2 2-2 2 .897 2 2-.897 2-2 2zm0-2.5c-.276 0-.5.224-.5.5s.224.5.5.5.5-.224.5-.5-.224-.5-.5-.5z"/><path d="m15 23c-1.103 0-2-.897-2-2s.897-2 2-2 2 .897 2 2-.897 2-2 2zm0-2.5c-.276 0-.5.224-.5.5s.224.5.5.5.5-.224.5-.5-.224-.5-.5-.5z"/><path d="m17.614 20h-14.114c-.414 0-.75-.336-.75-.75s.336-.75.75-.75h14.114c.126 0 .233-.094.248-.22l1.787-14.74c.106-.878.852-1.54 1.737-1.54h1.864c.414 0 .75.336.75.75s-.336.75-.75.75h-1.864c-.126 0-.233.094-.248.22l-1.787 14.74c-.106.878-.852 1.54-1.737 1.54z"/><path d="m20.02 7.5h-1.77c-.414 0-.75-.336-.75-.75s.336-.75.75-.75h1.76c.414 0 .755.336.755.75s-.331.75-.745.75z"/><path d="m18.84 17h-14.6c-.77 0-1.44-.494-1.667-1.229l-2.358-7.496c-.17-.519-.079-1.102.247-1.552.328-.453.858-.723 1.418-.723h4.13c.414 0 .75.336.75.75s-.336.75-.75.75h-4.13c-.112 0-.175.064-.203.103-.027.037-.067.113-.034.213l2.363 7.509c.032.104.128.175.234.175h14.6c.414 0 .75.336.75.75s-.336.75-.75.75z"/></svg>