<svg height="512" fill="#EDF5E1" viewBox="0 0 59 51" width="512" xmlns="http://www.w3.org/2000/svg"><g id="047---Tea"><path id="Shape" d="m10 49c0 1.1045695.8954305 2 2 2h34c1.1045695 0 2-.8954305 2-2v-2h-38z"/><path id="Shape" d="m50.99 14.79c.017.121.01-.669.01 5.49.7-1.01 1.87-2.22 2.61-2.28.09-.01.34-.03.79.5.8.94.92 4.42-.32 5.94-.27.33-.9 1.11-3.04-.06-.181-.182.212 1.877-.35 4.21.7305594.2687352 1.501636.4107756 2.28.42 6.3 0 7.444-9.649 4.46-13.11-1.5140459-2.016967-4.3380873-2.5037194-6.44-1.11z"/><path id="Shape" d="m26 24h4v-4.465l-2-1.333-2 1.333z"/><path id="Shape" d="m49 26v-11c0-1.1045695-.8954305-2-2-2h-18v3.465l2.555 1.7c.2789559.1861134.4460551.4996591.445.835v5c0 1.1045695-.8954305 2-2 2h-4c-1.1045695 0-2-.8954305-2-2v-5c-.00005-.3342785.1669303-.6464754.445-.832l2.555-1.703v-3.465h-8c-1.1045695 0-2 .8954305-2 2v11c0 4.9705627 4.0294373 9 9 9h-26v2c0 4.418278 3.581722 8 8 8h42c4.418278 0 8-3.581722 8-8v-2h-18c2.3869484 0 4.6761336-.9482116 6.363961-2.636039s2.636039-3.9770126 2.636039-6.363961z"/><ellipse id="Oval" cx="9.34" cy="27.968" rx="3" ry="4.747"/><path id="Shape" d="m6.715 33c-1.874-1.989-2.946-4.3-2.04-6.882-.83465887-.1391218-1.68204509-.1864037-2.527-.141-.2 1.274-.428 4.007.947 5.543.98821739.9145041 2.27415051 1.4402447 3.62 1.48z"/><path id="Shape" d="m27 1c0-.55228475-.4477153-1-1-1s-1 .44771525-1 1c0 2.408 2 2.653 2 4s-2 1.592-2 4c0 .55228475.4477153 1 1 1s1-.44771525 1-1c0-1.347 2-1.592 2-4s-2-2.653-2-4z"/><path id="Shape" d="m31 9c0 .55228475.4477153 1 1 1s1-.44771525 1-1c0-1.347 2-1.592 2-4s-2-2.653-2-4c0-.55228475-.4477153-1-1-1s-1 .44771525-1 1c0 2.408 2 2.653 2 4s-2 1.592-2 4z"/><path id="Shape" d="m37 9c0 .55228475.4477153 1 1 1s1-.44771525 1-1c0-1.347 2-1.592 2-4s-2-2.653-2-4c0-.55228475-.4477153-1-1-1s-1 .44771525-1 1c0 2.408 2 2.653 2 4s-2 1.592-2 4z"/></g></svg>